# xmcd
#
# Track frame offsets:
#	150
#	12405
#	22910
#	33155
#	42307
#	55435
#	68672
#	80847
#	92177
#	104402
#	113380
#	124405
#	134095
#	144285
#	155845
#	167710
#	178782
#	190997
#	201817
#	212965
#	222795
#	233632
#	244777
#	254667
#	265155
#	276565
#	285395
#	295110
#	307217
#	318497
#	328167
#	336935
#	346355
#
# Disc length: 4699 seconds
#
# Revision: 1
# Processed by: cddbd v1.5.2PL0 Copyright (c) Steve Scherf et al.
# Submitted via: audiograbber 1.83.01
#
DISCID=0b125921
DTITLE=Jimmie Skinner - Doin' My Time CD4
DYEAR=2003
DGENRE=Country
TTITLE0=Jimmie Skinner and Connie Hall - We've Got Things in Common
TTITLE1=Jimmie Skinner and Connie Hall - Where Do We Go From Here
TTITLE2=Jimmie Skinner - What Makes A Man Wander
TTITLE3=Jimmie Skinner - Where My Sweet Baby Goes
TTITLE4=Jimmie Skinner - I Found My Girl In The U.S.A.
TTITLE5=Connie Hall - I'm The Girl In The U.S.A.
TTITLE6=Jimmie Skinner - Doin' My Time
TTITLE7=Jimmie Skinner - On The Wrong Side Of The Track
TTITLE8=Jimmie Skinner - You Don't Know My Mind
TTITLE9=Jimmie Skinner - Dark Hollow
TTITLE10=Jimmie Skinner and Connie Hall - Lonesome At Your Table
TTITLE11=Jimmie Skinner - Walkin' My Blues Away
TTITLE12=Jimmie Skinner - When Temptation Smiles
TTITLE13=Jimmie Skinner - John Wesley Hardin
TTITLE14=Jimmie Skinner - Misery Loves Company
TTITLE15=Jimmie Skinner and Connie Hall - Married To A Friend
TTITLE16=Jimmie Skinner - Riverboat Gambler
TTITLE17=Jimmie Skinner - Two Squares Away
TTITLE18=Jimmie Skinner - Reasons To Live
TTITLE19=Jimmie Skinner - I'm A Lot More Lonesome Now
TTITLE20=Jimmie Skinner - Lonesome Road Blues
TTITLE21=Jimmie Skinner - The Hem Of His Garment
TTITLE22=Jimmie Skinner - Careless Love
TTITLE23=Jimmie Skinner - God's Mansion In The Sky
TTITLE24=Jimmie Skinner - I'll Weaken And Call
TTITLE25=Jimmie Skinner - Big City
TTITLE26=Jimmie Skinner - Please Don't Send Cecil Away
TTITLE27=Jimmie Skinner - Four Walls, A Floor And A Ceiling
TTITLE28=Jimmie Skinner - Don't Let Love Get You Down
TTITLE29=Jimmie Skinner - Big City (2)
TTITLE30=Jimmie Skinner - Fallen Leaves
TTITLE31=Jimmie Skinner - Short Life Of Trouble
TTITLE32=Jimmie Skinner - Kentucky Mountain Chimes (inst.)
EXTD=
EXTT0=
EXTT1=
EXTT2=
EXTT3=
EXTT4=
EXTT5=
EXTT6=
EXTT7=
EXTT8=
EXTT9=
EXTT10=
EXTT11=
EXTT12=
EXTT13=
EXTT14=
EXTT15=
EXTT16=
EXTT17=
EXTT18=
EXTT19=
EXTT20=
EXTT21=
EXTT22=
EXTT23=
EXTT24=
EXTT25=
EXTT26=
EXTT27=
EXTT28=
EXTT29=
EXTT30=
EXTT31=
EXTT32=
PLAYORDER=
